<?xml version="1.0" encoding="UTF-8" standalone="no"?>
<svg
   xmlns:dc="http://purl.org/dc/elements/1.1/"
   xmlns:cc="http://creativecommons.org/ns#"
   xmlns:rdf="http://www.w3.org/1999/02/22-rdf-syntax-ns#"
   xmlns:svg="http://www.w3.org/2000/svg"
   xmlns="http://www.w3.org/2000/svg"
   id="svg8"
   version="1.1"
   viewBox="0 0 2.6458333 2.6458334"
   height="10"
   width="10">
  <defs
     id="defs2" />
  <metadata
     id="metadata5">
    <rdf:RDF>
      <cc:Work
         rdf:about="">
        <dc:format>image/svg+xml</dc:format>
        <dc:type
           rdf:resource="http://purl.org/dc/dcmitype/StillImage" />
        <dc:title></dc:title>
      </cc:Work>
    </rdf:RDF>
  </metadata>
  <g
     transform="translate(0,-294.35415)"
     id="layer1">
    <path
       id="path21"
       d="m 0.5666644,296.98485 c -0.0156623,-0.0138 -0.0213757,-0.0155 -0.050566,-0.0155 -0.0437429,-1e-5 -0.0669452,-0.0115 -0.0754023,-0.0375 -0.0103542,-0.0317 -0.0253661,-0.11372 -0.0408056,-0.22289 -0.0133712,-0.0945 -0.0155025,-0.10334 -0.0268558,-0.11078 -0.009149,-0.006 -0.0145317,-0.007 -0.0208537,-0.003 -0.0103063,0.007 -0.009692,0.0218 0.00493,0.12216 0.009542,0.0655 0.009736,0.0726 0.002297,0.0839 -0.00859,0.0131 -0.0161907,0.0158 -0.0559848,0.0194 -0.0179462,0.002 -0.0274304,-4e-5 -0.0345644,-0.006 -0.0400631,-0.0344 -0.10133276,-0.24169 -0.13003802,-0.44004 l -0.0115948,-0.0801 -0.0230913,-0.0258 c -0.05184233,-0.058 -0.07717131,-0.1094 -0.09427624,-0.19124 -0.01955746,-0.0936 -0.0098878687,-0.15466 0.03936028,-0.24858 0.02300669,-0.0439 0.02829861,-0.0587 0.02829861,-0.0791 0,-0.0163 -0.0027884,-0.0274 -0.0079708,-0.0317 -0.01104175,-0.009 -0.01801802,-7.9e-4 -0.02157608,0.0257 -0.0024514,0.0183 -0.0045554,0.0213 -0.01380366,0.02 C 0.02000938,295.76192 0,295.72273 0,295.69702 c 0,-0.024 0.02401586,-0.12597 0.05522534,-0.23443 l 0.02379964,-0.0827 -0.0060164,-0.0491 c -0.02011616,-0.16418 -0.01994961,-0.16678 0.01176629,-0.1835 0.01786916,-0.009 0.0197785,-0.0125 0.02151073,-0.0348 0.003005,-0.0386 0.0349057,-0.0934 0.12133071,-0.20817 0.10956149,-0.14557 0.24758975,-0.27508 0.38735274,-0.36346 0.359135,-0.22711 0.91670025,-0.24962 1.31979625,-0.0533 0.2013468,0.0981 0.4085485,0.29031 0.5522316,0.51237 0.039258,0.0607 0.050473,0.0844 0.054015,0.11431 0.00274,0.0232 0.00478,0.0265 0.020419,0.033 0.031148,0.013 0.032469,0.0288 0.013876,0.16619 l -0.0085,0.0628 0.028959,0.10259 c 0.035015,0.12406 0.050182,0.19075 0.050069,0.22015 -1.025e-4,0.0277 -0.018942,0.0627 -0.034938,0.065 -0.00993,0.001 -0.011488,-7.9e-4 -0.011488,-0.0158 0,-0.01 -0.00324,-0.0219 -0.00719,-0.0273 -0.011638,-0.0159 -0.023814,-0.002 -0.023814,0.0281 0,0.0192 0.00588,0.0356 0.028313,0.0792 0.04972,0.0965 0.059327,0.15939 0.039049,0.25548 -0.015564,0.0737 -0.046051,0.13338 -0.096031,0.18783 -0.021053,0.0229 -0.021469,0.0242 -0.030239,0.0879 -0.027932,0.20294 -0.087221,0.41024 -0.1293938,0.45242 -0.0098,0.01 -0.015751,0.0113 -0.037007,0.009 -0.040246,-0.004 -0.047963,-0.006 -0.05623,-0.0189 -0.00701,-0.0107 -0.00649,-0.021 0.00523,-0.1039 0.00988,-0.0699 0.01158,-0.0938 0.00708,-0.0992 -0.00794,-0.01 -0.016848,-0.009 -0.029608,0.002 -0.00811,0.007 -0.011824,0.0193 -0.015852,0.053 -0.013025,0.10876 -0.035781,0.23892 -0.048683,0.27845 -0.00824,0.0253 -0.031857,0.0368 -0.075205,0.0368 -0.02919,1e-5 -0.034904,0.002 -0.050566,0.0155 -0.021896,0.0192 -0.041048,0.0199 -0.073382,0.003 -0.013209,-0.007 -0.0407,-0.0154 -0.061091,-0.0185 -0.067077,-0.0103 -0.1138246,-0.0491 -0.1331418,-0.11055 -0.00846,-0.0269 -0.00912,-0.044 -0.00658,-0.17018 0.00358,-0.17743 0.017656,-0.31974 0.047613,-0.48141 0.043795,-0.23635 0.1210919,-0.43421 0.1848149,-0.47307 0.014903,-0.009 0.026248,-0.0102 0.1047319,-0.0102 0.088253,-10e-6 0.1418565,0.007 0.1461652,0.0204 0.00628,0.0189 0.028033,0.0355 0.050944,0.0389 0.030876,0.005 0.050056,0.0242 0.058616,0.0599 0.00732,0.0305 0.00735,0.0303 -0.03431,0.21664 -0.026499,0.1185 -0.027722,0.12694 -0.0193,0.1331 0.022124,0.0162 0.02895,0.007 0.040585,-0.0555 0.01239,-0.0664 0.031333,-0.12555 0.043777,-0.13682 0.016919,-0.0153 0.067406,-0.003 0.093467,0.0234 0.00829,0.008 0.010061,0.0173 0.010061,0.0514 0,0.0408 0.00163,0.0451 0.014011,0.0372 0.016002,-0.0102 0.037667,-0.0938 0.037667,-0.14544 0,-0.0266 -0.00392,-0.038 -0.03412,-0.0992 -0.04342,-0.088 -0.051308,-0.12203 -0.041363,-0.1785 0.012416,-0.0705 0.042123,-0.12149 0.052227,-0.0897 0.0018,0.006 0.00559,0.0103 0.00842,0.0103 0.00772,0 6.032e-4,-0.0394 -0.022215,-0.12305 -0.032238,-0.11817 -0.037331,-0.12846 -0.096155,-0.19423 -0.015555,-0.0174 -0.033023,-0.0413 -0.038818,-0.0532 -0.00994,-0.0204 -0.010049,-0.0223 -0.00194,-0.0347 0.012914,-0.0197 0.01062,-0.0266 -0.01175,-0.0354 -0.018181,-0.007 -0.022922,-0.0131 -0.044541,-0.0564 -0.059853,-0.11962 -0.188817,-0.28287 -0.2589299,-0.32777 -0.014668,-0.009 -0.028196,-0.0219 -0.030063,-0.0278 -0.00401,-0.0126 -0.00723,-0.0131 -0.021152,-0.003 -0.015781,0.0111 -0.065697,0.0242 -0.094321,0.0249 -0.030114,7.9e-4 -0.061335,-0.0154 -0.087514,-0.0452 -0.012447,-0.0141 -0.019178,-0.0181 -0.025839,-0.0152 -0.013032,0.006 -0.076259,0.009 -0.092278,0.005 -0.00751,-0.002 -0.026827,-0.016 -0.042926,-0.0314 l -0.02927,-0.0279 -0.020455,0.007 c -0.029048,0.0104 -0.073234,0.009 -0.097972,-0.002 -0.011369,-0.005 -0.029864,-0.0192 -0.041099,-0.0309 -0.022657,-0.0236 -0.028305,-0.0252 -0.047099,-0.0128 -0.00728,0.005 -0.028163,0.01 -0.047899,0.0109 -0.028576,0.002 -0.03886,5.3e-4 -0.056045,-0.008 -0.011576,-0.006 -0.022423,-0.0143 -0.024106,-0.0187 -0.00387,-0.0101 -0.022012,-0.0104 -0.025834,-5.3e-4 -0.00159,0.004 -0.012756,0.0126 -0.024821,0.0187 -0.018143,0.009 -0.027987,0.0108 -0.056934,0.009 -0.019736,-0.001 -0.040624,-0.006 -0.047899,-0.011 -0.018767,-0.0123 -0.024423,-0.0108 -0.047099,0.0127 -0.011235,0.0116 -0.029056,0.0256 -0.039601,0.031 -0.023414,0.0121 -0.066301,0.013 -0.09723,0.002 l -0.0220985,-0.008 -0.0295687,0.0282 c -0.0162629,0.0155 -0.035498,0.0297 -0.0427449,0.0315 -0.0150458,0.004 -0.0733257,5.3e-4 -0.0891708,-0.005 -0.008326,-0.003 -0.0168301,0.002 -0.0397929,0.0244 -0.0191244,0.0184 -0.0362313,0.0299 -0.0495656,0.0332 -0.0263798,0.007 -0.0724876,-5.3e-4 -0.1081092,-0.0167 l -0.0271835,-0.0124 -0.008116,0.0124 c -0.004464,0.007 -0.0193887,0.0196 -0.0331663,0.0285 -0.0420944,0.027 -0.12792199,0.12376 -0.19260555,0.21707 -0.0147786,0.0213 -0.0396944,0.0644 -0.055368,0.0956 -0.0259398,0.0518 -0.0304674,0.0578 -0.0504419,0.0671 -0.0240094,0.0112 -0.026233,0.0172 -0.0134853,0.0367 0.00786,0.012 0.007825,0.0143 -4.9795e-4,0.0328 -0.004926,0.0109 -0.0261426,0.0393 -0.0471481,0.0632 -0.0210054,0.0238 -0.0426778,0.0527 -0.0481611,0.0643 -0.0196163,0.0413 -0.05338602,0.15891 -0.0648378,0.22582 -0.0034961,0.0204 0.0042505,0.0274 0.01007083,0.009 0.01508133,-0.0475 0.06524958,0.0831 0.05655327,0.14724 -0.004709,0.0347 -0.0193954,0.0731 -0.04996346,0.1304 -0.0289915,0.0544 -0.03451296,0.0842 -0.02535769,0.13674 0.01139113,0.0654 0.02673059,0.10252 0.04239217,0.10252 0.002639,0 0.004799,-0.0177 0.004799,-0.0393 0,-0.0375 7.5433e-4,-0.04 0.0170378,-0.0563 0.0264465,-0.0265 0.0723961,-0.0363 0.0881123,-0.019 0.0121675,0.0134 0.0308585,0.0723 0.0421379,0.13268 0.0103845,0.0556 0.0143527,0.0646 0.0284174,0.0646 0.0225901,0 0.0219247,-0.009 -0.0111167,-0.1557 -0.0357588,-0.15841 -0.0388048,-0.1912 -0.0209317,-0.22534 0.0129452,-0.0247 0.0217321,-0.0307 0.052297,-0.0356 0.0170482,-0.003 0.0253389,-0.008 0.0397353,-0.0257 0.0236974,-0.0289 0.043891,-0.0333 0.15499097,-0.0333 0.0650147,0 0.0887698,0.002 0.0999993,0.008 0.0771767,0.0399 0.16771588,0.29946 0.20950128,0.60055 0.0172818,0.12453 0.0240366,0.21283 0.0268761,0.35131 0.002696,0.13145 0.00208,0.14823 -0.006448,0.17534 -0.0193395,0.0615 -0.0660576,0.10031 -0.13316349,0.11063 -0.0203907,0.003 -0.0478813,0.0115 -0.0610905,0.0185 -0.032334,0.0172 -0.0514867,0.0165 -0.0733821,-0.003 z m 0.0528955,-0.0299 c 0.003347,-0.006 0.001841,-0.0276 -0.004637,-0.0659 -0.0122272,-0.0722 -0.0665798,-0.40418 -0.0723242,-0.44174 -0.004405,-0.0288 -0.0339507,-0.20159 -0.0490507,-0.28687 -0.0290425,-0.16402 -0.0761784,-0.38309 -0.0836505,-0.38877 -0.0103653,-0.008 -0.0275017,1.9e-4 -0.0274289,0.0129 2.929e-5,0.005 0.012872,0.0717 0.0285427,0.14842 0.0156707,0.0768 0.0318805,0.15817 0.0360221,0.18091 0.004142,0.0228 0.012179,0.067 0.0178615,0.0982 0.0159541,0.0878 0.0470189,0.27614 0.10401189,0.63061 0.008685,0.054 0.0179009,0.10344 0.0204801,0.10984 0.005639,0.014 0.0232193,0.0154 0.0301731,0.002 z m 1.4371078,-0.002 c 0.00265,-0.006 0.013212,-0.064 0.023462,-0.12793 0.082385,-0.51416 0.1178548,-0.7153 0.1701716,-0.96497 0.015703,-0.0749 0.01603,-0.0824 0.00388,-0.089 -0.014627,-0.008 -0.022198,8e-4 -0.029932,0.0344 -0.027999,0.12122 -0.078437,0.38727 -0.1104907,0.58281 -0.011651,0.0711 -0.036177,0.21993 -0.054502,0.33081 -0.035838,0.21682 -0.037526,0.22961 -0.031595,0.23921 0.00641,0.0104 0.02382,0.007 0.02901,-0.005 z m -1.56213239,-0.0744 c 0.0122431,-0.0319 -0.16410567,-0.9593 -0.18695561,-0.98316 -0.0103828,-0.0109 -0.028518,-0.003 -0.028518,0.0129 0,0.007 0.009209,0.0529 0.0204637,0.10174 0.0237085,0.10282 0.0799946,0.3838 0.10320856,0.51519 0.008789,0.0498 0.0193241,0.10906 0.0234103,0.13181 0.004086,0.0227 0.0136043,0.0809 0.0211516,0.12922 0.007547,0.0483 0.0160888,0.0908 0.0189812,0.0943 0.007503,0.009 0.0244039,0.008 0.0282582,-0.002 z m 1.68837039,-5.3e-4 c 0.0029,-0.009 0.00767,-0.0371 0.033994,-0.19771 0.033898,-0.20674 0.083271,-0.46273 0.1264371,-0.65556 0.012936,-0.0578 0.023519,-0.11054 0.023519,-0.11724 0,-0.0135 -0.018064,-0.0227 -0.026977,-0.0138 -0.00513,0.005 -0.022133,0.07 -0.037525,0.14307 -0.00419,0.0199 -0.014763,0.0699 -0.023495,0.11113 -0.028372,0.13394 -0.041419,0.20118 -0.079737,0.41094 -0.014862,0.0814 -0.049314,0.29741 -0.049314,0.30926 0,0.0151 0.00379,0.019 0.0186,0.019 0.00665,0 0.012916,-0.004 0.014498,-0.009 z m -0.7086978,-0.28688 c -0.01302,-0.0167 -0.019638,-0.0555 -0.031493,-0.18478 l -0.00403,-0.0439 -0.00628,0.031 c -0.011522,0.0569 -0.010946,0.0565 -0.075909,0.0595 l -0.056536,0.003 -0.00788,0.0208 c -0.018361,0.0485 -0.042677,0.0726 -0.064908,0.0644 -0.017282,-0.006 -0.022237,-0.0164 -0.029511,-0.0596 l -0.00693,-0.0411 -0.00615,0.0557 c -0.00667,0.0604 -0.015458,0.0838 -0.034787,0.0926 -0.017553,0.008 -0.036819,-0.006 -0.043441,-0.0307 -0.00438,-0.0166 -0.017569,-0.12381 -0.022415,-0.18222 -0.00122,-0.0147 -0.00288,-0.0109 -0.00877,0.0199 -0.00994,0.0519 -0.01345,0.0539 -0.0932527,0.0516 -0.0658449,-0.002 -0.0721343,-0.004 -0.0723103,-0.0278 -1.465e-4,-0.0193 0.009867,-0.023 0.0626016,-0.023 h 0.0502781 l 0.00591,-0.0297 c 0.0238,-0.1197 0.036092,-0.15485 0.055888,-0.15982 0.031821,-0.008 0.039867,0.0119 0.047922,0.11846 0.0036,0.0476 0.00813,0.0866 0.01007,0.0866 0.00194,0 0.00482,-0.0125 0.0064,-0.0279 0.00285,-0.0276 0.015379,-0.0591 0.026425,-0.0664 0.00316,-0.002 0.011965,-0.004 0.019575,-0.004 0.025701,-1.5e-4 0.037798,0.0259 0.050271,0.10846 0.00416,0.0275 0.00443,0.0279 0.00824,0.0115 0.00624,-0.0269 0.018672,-0.0321 0.075846,-0.0321 h 0.050294 l 0.00326,-0.0194 c 0.00632,-0.0376 0.028028,-0.12523 0.03539,-0.14284 0.015314,-0.0367 0.049431,-0.0364 0.059672,5.3e-4 0.003,0.0108 0.00805,0.058 0.011209,0.10492 0.00316,0.0469 0.00649,0.0861 0.00739,0.0871 8.996e-4,0.001 0.00316,-0.01 0.00503,-0.0233 0.0081,-0.0598 0.021365,-0.0845 0.045307,-0.0844 0.00917,5e-5 0.019259,0.002 0.022415,0.004 0.012197,0.008 0.021821,0.0367 0.027215,0.0808 0.00309,0.0253 0.0066,0.047 0.0078,0.0482 0.0012,0.001 0.00376,-0.005 0.00568,-0.0137 0.00607,-0.0276 0.013927,-0.0313 0.066587,-0.0313 0.05201,0 0.060094,0.004 0.060094,0.0267 0,0.0188 -0.012528,0.025 -0.050125,0.025 h -0.030134 l -0.00921,0.0259 c -0.012588,0.0355 -0.036459,0.0619 -0.055837,0.0619 -0.02049,0 -0.03337,-0.0223 -0.038342,-0.0664 l -0.00388,-0.0344 -0.00885,0.0605 c -0.010368,0.0709 -0.018309,0.0868 -0.043407,0.0868 -0.00953,0 -0.019608,-0.003 -0.022386,-0.006 z"
       style="fill:#000000;stroke-width:0.00516838" />
  </g>
</svg>
